# xmcd
#
# Track frame offsets:
#	150
#	18468
#	26373
#	39981
#	56391
#	64470
#	82376
#	94182
#	102997
#	118099
#	142299
#	157477
#	174499
#	188888
#	201035
#	216813
#	233462
#	242815
#	255307
#	272632
#	284616
#	296383
#	311949
#	322422
#	332245
#
# Disc length: 4591 seconds
#
# Revision: 0
# Processed by: cddbd v1.5.1PL2 Copyright (c) Steve Scherf et al.
# Submitted via: audiograbber 1.83.01
#
DISCID=8911ed19
DTITLE=Stefan grossman - How to play blues guitar
DYEAR=1900
DGENRE=
TTITLE0=Man of my own.
TTITLE1=Rainy day blues
TTITLE2=Strange citty streets
TTITLE3=Nobody's fault but mine
TTITLE4=Come back baby
TTITLE5=Moon going down
TTITLE6=Wake up mama
TTITLE7=Mourning music
TTITLE8=Pallet on you floor
TTITLE9=Jubilee Jambouree
TTITLE10=Good morning little schoolboy
TTITLE11=Special Rider Blues
TTITLE12=Pallet on your floor
TTITLE13=New Pony Blues
TTITLE14=One Kind Favor
TTITLE15=Hoverin' for my Crow Jane
TTITLE16=Hard time killin' floor
TTITLE17=If you haven't any Hay
TTITLE18=Get on Down the road
TTITLE19=Ragtime mama blues
TTITLE20=Someday Baby
TTITLE21=Yonder comes the Blues
TTITLE22=Weeping willow
TTITLE23=Brownswille blues
TTITLE24=grossman
EXTD=
EXTT0=drthsh
EXTT1=
EXTT2=
EXTT3=
EXTT4=
EXTT5=
EXTT6=
EXTT7=
EXTT8=
EXTT9=
EXTT10=
EXTT11=
EXTT12=
EXTT13=
EXTT14=
EXTT15=
EXTT16=
EXTT17=
EXTT18=
EXTT19=
EXTT20=
EXTT21=
EXTT22=
EXTT23=
EXTT24=
PLAYORDER=
